<svg width="1280" height="1280" version="1.1" xmlns="http://www.w3.org/2000/svg" desc="Created with imagetracer.js version 1.2.6" ><path fill="rgb(0,0,0)" stroke="rgb(0,0,0)" stroke-width="1" opacity="0" d="M 0 0 L 1280 0 L 1280 1280 L 0 1280 L 0 0 Z M 387 269 L 384 272 L 384 294 L 383 295 Q 377 297 376 294 L 373 295 L 335 295 L 333 297 L 333 345 L 332 346 L 308 346 L 308 405 L 307 409 L 306 410 L 257 410 L 256 414 L 256 436 L 207 436 L 205 438 L 205 510 L 208 512 L 230 512 L 231 514 L 231 536 L 233 537 L 255 537 L 256 539 L 256 561 L 259 563 L 384 563 L 384 716 L 407 716 L 408 717 L 410 718 L 410 895 L 409 896 L 385 896 L 384 899 L 384 959 L 386 960 L 461 960 L 461 961 L 461 985 L 462 985 L 588 985 L 589 960 L 612 960 L 613 959 L 614 959 L 614 820 L 615 819 L 638 819 L 640 816 L 640 795 L 642 793 L 691 793 L 691 818 L 693 819 L 717 819 L 717 844 L 720 845 L 735 845 L 736 844 L 742 845 L 743 847 L 743 895 L 742 896 L 719 896 L 717 898 L 717 946 L 719 947 L 818 947 L 819 946 L 819 922 L 822 921 L 844 921 L 844 847 L 847 844 L 869 844 L 870 846 L 870 921 L 868 921 L 866 921 L 853 921 L 852 922 L 845 922 L 845 985 L 946 985 L 947 984 L 947 960 L 970 960 L 971 959 L 972 959 L 972 794 L 970 793 L 947 793 L 947 643 L 946 642 L 946 640 L 922 640 L 922 629 L 921 628 L 921 618 L 922 617 L 923 614 L 934 614 L 935 609 L 935 597 L 935 595 Q 934 588 936 588 L 959 588 L 960 587 L 960 563 L 983 563 L 985 562 L 986 556 L 986 539 L 988 537 L 1010 537 L 1011 536 L 1011 410 L 992 410 L 986 409 L 986 389 L 985 386 L 984 384 L 937 384 L 935 386 L 935 512 L 912 512 L 911 513 L 909 514 L 909 537 L 908 538 L 884 538 L 884 560 L 883 563 L 880 564 L 876 563 L 845 563 L 845 542 L 844 540 L 843 538 L 642 538 L 640 537 L 640 438 L 639 436 L 616 436 L 614 435 L 614 372 L 612 371 L 589 371 L 588 369 L 588 346 L 565 346 L 563 345 L 563 322 L 562 320 L 537 320 L 537 295 L 528 295 L 527 294 L 512 294 L 512 271 L 511 269 L 387 269 Z " /><path fill="rgb(130,72,37)" stroke="rgb(130,72,37)" stroke-width="1" opacity="0.996078431372549" d="M 359.5 320 L 384 320.5 L 359.5 321 L 359.5 320 Z " /><path fill="rgb(130,72,37)" stroke="rgb(130,72,37)" stroke-width="1" opacity="0.996078431372549" d="M 512.5 345 L 537 345.5 L 512.5 346 L 512.5 345 Z " /><path fill="rgb(130,72,37)" stroke="rgb(130,72,37)" stroke-width="1" opacity="0.996078431372549" d="M 409.5 384 L 410 434.5 L 409 434.5 L 409.5 384 Z " /><path fill="rgb(130,72,37)" stroke="rgb(130,72,37)" stroke-width="1" opacity="0.996078431372549" d="M 308.5 409 L 333 409.5 L 308.5 410 L 308.5 409 Z " /><path fill="rgb(130,72,37)" stroke="rgb(130,72,37)" stroke-width="1" opacity="0.996078431372549" d="M 461 435 L 486 435 L 486 460 L 461 460 L 461 435 Z " /><path fill="rgb(130,72,37)" stroke="rgb(130,72,37)" stroke-width="1" opacity="0.996078431372549" d="M 460.5 461 L 461 511.5 L 459.5 513 L 444.5 513 L 444.5 512 L 459.5 512 L 460 511.5 L 460.5 461 Z " /><path fill="rgb(130,72,37)" stroke="rgb(130,72,37)" stroke-width="1" opacity="0.996078431372549" d="M 960.5 486 L 961 512 L 985 512 L 985 535.5 L 983.5 537 L 960 537 L 960 561.5 L 957.5 564 L 935 564 L 935 586.5 L 932.5 589 L 896 589 L 896 564 L 909.5 564 L 910.5 563 L 934 563 L 934 538 L 958.5 538 L 960 536.5 L 960 513 L 935 512.5 L 960 512 L 960.5 486 Z " /><path fill="rgb(130,72,37)" stroke="rgb(130,72,37)" stroke-width="1" opacity="0.996078431372549" d="M 256.5 512 L 257 536.5 L 256 536.5 L 256.5 512 Z " /><path fill="rgb(130,72,37)" stroke="rgb(130,72,37)" stroke-width="1" opacity="0.996078431372549" d="M 259.5 537 L 384 537.5 L 259.5 538 L 259.5 537 Z " /><path fill="rgb(130,72,37)" stroke="rgb(130,72,37)" stroke-width="1" opacity="0.996078431372549" d="M 432.5 537 L 435 537.5 L 432.5 538 L 432.5 537 Z " /><path fill="rgb(130,72,37)" stroke="rgb(130,72,37)" stroke-width="1" opacity="0.996078431372549" d="M 385.5 539 L 386 562 L 409.5 562 L 411 563.5 L 410.5 639 L 410 564 L 405.5 563 L 385 563 L 384 560.5 L 384 540.5 L 385.5 539 Z " /><path fill="rgb(130,72,37)" stroke="rgb(130,72,37)" stroke-width="1" opacity="0.996078431372549" d="M 640.5 563 L 843 563.5 L 640 564 L 640 589 L 615 589 L 615 599.5 L 614 600.5 L 614 614 L 589 614 L 589 640 L 564 640 L 564 615 L 587.5 615 L 589 613.5 L 589 590 L 613.5 590 L 615 588.5 L 615 564 L 639.5 564 L 640.5 563 Z " /><path fill="rgb(130,72,37)" stroke="rgb(130,72,37)" stroke-width="1" opacity="0.996078431372549" d="M 844.5 564 L 845 588.5 L 844 588.5 L 844.5 564 Z " /><path fill="rgb(130,72,37)" stroke="rgb(130,72,37)" stroke-width="1" opacity="0.996078431372549" d="M 461 589 L 486 589 L 486 614 L 461 614 L 461 589 Z " /><path fill="rgb(130,72,37)" stroke="rgb(130,72,37)" stroke-width="1" opacity="0.996078431372549" d="M 486 615 L 512 615 L 512 640 L 486 640 L 486 615 Z " /><path fill="rgb(130,72,37)" stroke="rgb(130,72,37)" stroke-width="1" opacity="0.996078431372549" d="M 921.5 641 L 922 793 L 945 793.5 L 921 794 L 921.5 641 Z " /><path fill="rgb(130,72,37)" stroke="rgb(130,72,37)" stroke-width="1" opacity="0.996078431372549" d="M 411.5 716 L 436 716 L 436 741.5 L 435 741.5 L 435 717 L 411.5 717 L 411.5 716 Z " /><path fill="rgb(130,72,37)" stroke="rgb(130,72,37)" stroke-width="1" opacity="0.996078431372549" d="M 691 717 L 767.5 717 L 768 717.5 L 768 742 L 717 742 L 717 766.5 L 716.5 767 L 640 767 L 640 792.5 L 638.5 793 L 637.5 794 L 589 794 L 589 958.5 L 587.5 959 L 586.5 960 L 486 960 L 486.5 922 L 487 959 L 537 959 L 537 935.5 L 538.5 934 L 563 934 L 563 793.5 L 563.5 793 L 589 793 L 589 768 L 612.5 768 L 614 766.5 L 614 743 L 691 743 L 691 717 Z " /><path fill="rgb(130,72,37)" stroke="rgb(130,72,37)" stroke-width="1" opacity="0.996078431372549" d="M 461 742 L 483.5 742 L 487 743 L 487 764.5 L 486 768 L 461 768 L 461 742 Z " /><path fill="rgb(130,72,37)" stroke="rgb(130,72,37)" stroke-width="1" opacity="0.996078431372549" d="M 768 743 L 794 743 L 794 767 L 768 767 L 768 743 Z " /><path fill="rgb(130,72,37)" stroke="rgb(130,72,37)" stroke-width="1" opacity="0.996078431372549" d="M 488.5 767 L 512 768 L 512 793 L 487 793 L 487 768.5 L 488.5 767 Z " /><path fill="rgb(130,72,37)" stroke="rgb(130,72,37)" stroke-width="1" opacity="0.996078431372549" d="M 435 768 L 460 768 L 460 792.5 L 461.5 794 L 486 794 L 486 921 L 460 921 L 460 933.5 L 459.5 934 L 421.5 934 L 419.5 933 L 418.5 934 L 410 934 L 410 896 L 434.5 896 L 435 895.5 L 435 768 Z " /><path fill="rgb(130,72,37)" stroke="rgb(130,72,37)" stroke-width="1" opacity="0.996078431372549" d="M 717 768 L 767 768 L 767 794 L 794 794 L 794 820 L 819 820 L 819 919.5 L 818 922 L 743.5 922 L 743 921.5 L 743 897.5 L 744.5 896 L 768 896 L 768 845 L 743 845 L 743 819 L 718.5 819 L 718 817.5 L 717 816.5 L 717 768 Z " /><path fill="rgb(130,72,37)" stroke="rgb(130,72,37)" stroke-width="1" opacity="0.996078431372549" d="M 794 768 L 819 768 L 819 793 L 794 793 L 794 768 Z " /><path fill="rgb(130,72,37)" stroke="rgb(130,72,37)" stroke-width="1" opacity="0.996078431372549" d="M 820.5 793 L 871 793 L 871 819 L 896 819 L 896 845 L 919.5 845 Q 920.8 842.8 922 845.5 L 922 921.5 L 921.5 922 L 898.5 922 L 897.5 923 L 874.5 923 L 873 924.5 L 872 929.5 L 872 931.5 L 872 957.5 L 872.5 958 L 879.5 958 L 880.5 959 L 904 959.5 L 871 960 L 871 922 L 895.5 922 L 896 921.5 L 896 845 L 871 845 L 871 819 L 820.5 819 L 819 815.5 L 819 801.5 L 820 800.5 Q 817.8 799.3 819 794.5 L 820.5 793 Z " /><path fill="rgb(86,47,31)" stroke="rgb(86,47,31)" stroke-width="1" opacity="0.996078431372549" d="M 384.5 294 L 516 294.5 L 513 295 L 512.5 320 L 512 295 L 384.5 295 L 384.5 294 Z " /><path fill="rgb(86,47,31)" stroke="rgb(86,47,31)" stroke-width="1" opacity="0.996078431372549" d="M 537.5 320 L 538 346 L 563 346 L 563 371 L 587.5 371 L 589 372.5 L 589 435 L 615 435.5 L 614 436.5 L 614 563 L 640 563.5 L 615 564 L 615 588.5 L 613.5 590 L 563 589 L 563 614 L 512.5 614 L 511.5 615 L 486.5 615 L 486.5 614 L 512 614 L 512 589 L 486 589 L 486 461.5 L 485.5 461 L 461.5 461 L 461.5 460 L 512 461 L 512 346.5 L 512.5 346 L 537 346 L 537.5 320 Z M 589 564 L 589 589 L 614 589 L 614 564 L 589 564 Z " /><path fill="rgb(86,47,31)" stroke="rgb(86,47,31)" stroke-width="1" opacity="0.996078431372549" d="M 358.5 335 L 359 342.5 L 358 342.5 L 358.5 335 Z " /><path fill="rgb(86,47,31)" stroke="rgb(86,47,31)" stroke-width="1" opacity="0.996078431372549" d="M 334.5 345 L 359 345.5 L 334.5 346 L 334.5 345 Z " /><path fill="rgb(86,47,31)" stroke="rgb(86,47,31)" stroke-width="1" opacity="0.996078431372549" d="M 332.5 347 L 333 408.5 L 332 408.5 L 332.5 347 Z " /><path fill="rgb(86,47,31)" stroke="rgb(86,47,31)" stroke-width="1" opacity="0.996078431372549" d="M 306.5 409 L 308 409.5 L 308 434.5 L 307 434.5 L 307 410.5 L 306.5 409 Z " /><path fill="rgb(86,47,31)" stroke="rgb(86,47,31)" stroke-width="1" opacity="0.996078431372549" d="M 960 409 L 983.5 409 L 986 410 L 986 536.5 L 987 537.5 L 960.5 538 L 960.5 537 L 983.5 537 L 985 535.5 L 985 486 L 960.5 486 L 960 485.5 L 960 409 Z " /><path fill="rgb(86,47,31)" stroke="rgb(86,47,31)" stroke-width="1" opacity="0.996078431372549" d="M 230.5 486 L 231 510.5 L 230 510.5 L 230.5 486 Z " /><path fill="rgb(86,47,31)" stroke="rgb(86,47,31)" stroke-width="1" opacity="0.996078431372549" d="M 435 512 L 443.5 512 L 444.5 513 L 459.5 513 L 461 512.5 L 461 589 L 411 589 L 411 563.5 L 409.5 562 L 386 562 L 386 539.5 L 384 539.5 L 384.5 538 L 435 538 L 435 512 Z " /><path fill="rgb(86,47,31)" stroke="rgb(86,47,31)" stroke-width="1" opacity="0.996078431372549" d="M 934.5 513 L 935 538 L 910 537.5 L 934 537 L 934.5 513 Z " /><path fill="rgb(86,47,31)" stroke="rgb(86,47,31)" stroke-width="1" opacity="0.996078431372549" d="M 255.5 537 L 259 537.5 L 255.5 538 L 255.5 537 Z " /><path fill="rgb(86,47,31)" stroke="rgb(86,47,31)" stroke-width="1" opacity="0.996078431372549" d="M 384.5 561 L 385 563 L 406 563.5 L 385.5 564 L 384.5 561 Z " /><path fill="rgb(86,47,31)" stroke="rgb(86,47,31)" stroke-width="1" opacity="0.996078431372549" d="M 959.5 562 L 958.5 564 L 959.5 562 Z " /><path fill="rgb(86,47,31)" stroke="rgb(86,47,31)" stroke-width="1" opacity="0.996078431372549" d="M 409.5 564 L 410 715.5 L 411 716.5 L 409 715.5 L 409.5 564 Z " /><path fill="rgb(86,47,31)" stroke="rgb(86,47,31)" stroke-width="1" opacity="0.996078431372549" d="M 934.5 587 L 933.5 589 L 934.5 587 Z " /><path fill="rgb(86,47,31)" stroke="rgb(86,47,31)" stroke-width="1" opacity="0.996078431372549" d="M 564.5 614 L 588 614.5 L 564.5 615 L 564.5 614 Z " /><path fill="rgb(86,47,31)" stroke="rgb(86,47,31)" stroke-width="1" opacity="0.996078431372549" d="M 435.5 742 L 461 742.5 L 435.5 743 L 435.5 742 Z " /><path fill="rgb(86,47,31)" stroke="rgb(86,47,31)" stroke-width="1" opacity="0.996078431372549" d="M 717.5 742 L 768 742.5 L 717.5 743 L 717.5 742 Z " /><path fill="rgb(86,47,31)" stroke="rgb(86,47,31)" stroke-width="1" opacity="0.996078431372549" d="M 435.5 767 L 461 767 L 461 793 L 486 793 L 486.5 768 L 487 793 L 512 793.5 L 487 794 L 487 920.5 L 487.5 921 L 511.5 921 L 511.5 922 L 461.5 922 L 461 922.5 L 461 933.5 L 460 933.5 L 460 921 L 485.5 921 L 486 920.5 L 486 794 L 461.5 794 L 460 792.5 L 460 768 L 435.5 768 L 435.5 767 Z " /><path fill="rgb(86,47,31)" stroke="rgb(86,47,31)" stroke-width="1" opacity="0.996078431372549" d="M 640.5 767 L 717 767 L 717 816.5 L 718 818.5 L 717 818.5 L 716 816.5 L 716 768 L 640.5 768 L 640.5 767 Z " /><path fill="rgb(86,47,31)" stroke="rgb(86,47,31)" stroke-width="1" opacity="0.996078431372549" d="M 767 767 L 794 767.5 L 768 768 L 768 793 L 819.5 793 L 819.5 794 L 767 794 L 767 767 Z " /><path fill="rgb(86,47,31)" stroke="rgb(86,47,31)" stroke-width="1" opacity="0.996078431372549" d="M 945.5 793 L 948 794.5 L 947.5 960 L 947 794 L 945.5 793 Z " /><path fill="rgb(86,47,31)" stroke="rgb(86,47,31)" stroke-width="1" opacity="0.996078431372549" d="M 589.5 794 L 590 816.5 L 589 816.5 L 589.5 794 Z " /><path fill="rgb(86,47,31)" stroke="rgb(86,47,31)" stroke-width="1" opacity="0.996078431372549" d="M 819.5 818 L 818.5 820 L 794 819.5 L 818.5 819 L 819.5 818 Z " /><path fill="rgb(86,47,31)" stroke="rgb(86,47,31)" stroke-width="1" opacity="0.996078431372549" d="M 720.5 819 L 726 819.5 L 720.5 820 L 720.5 819 Z " /><path fill="rgb(86,47,31)" stroke="rgb(86,47,31)" stroke-width="1" opacity="0.996078431372549" d="M 742.5 819 L 743 843.5 L 742 843.5 L 742.5 819 Z " /><path fill="rgb(86,47,31)" stroke="rgb(86,47,31)" stroke-width="1" opacity="0.996078431372549" d="M 870.5 819 L 871 845.5 L 870 845.5 L 870.5 819 Z " /><path fill="rgb(86,47,31)" stroke="rgb(86,47,31)" stroke-width="1" opacity="0.996078431372549" d="M 427.5 895 L 435 895.5 L 427.5 896 L 427.5 895 Z " /><path fill="rgb(86,47,31)" stroke="rgb(86,47,31)" stroke-width="1" opacity="0.996078431372549" d="M 409.5 896 L 410 933.5 L 409 933.5 L 409.5 896 Z " /><path fill="rgb(86,47,31)" stroke="rgb(86,47,31)" stroke-width="1" opacity="0.996078431372549" d="M 743.5 896 L 743 897.5 L 742.5 922 L 742 897.5 L 743.5 896 Z " /><path fill="rgb(86,47,31)" stroke="rgb(86,47,31)" stroke-width="1" opacity="0.996078431372549" d="M 818.5 920 L 819.5 922 Q 816.7 922.7 818.5 920 Z " /><path fill="rgb(86,47,31)" stroke="rgb(86,47,31)" stroke-width="1" opacity="0.996078431372549" d="M 870.5 923 L 871 959.5 L 870 959.5 L 870.5 923 Z " /><path fill="rgb(86,47,31)" stroke="rgb(86,47,31)" stroke-width="1" opacity="0.996078431372549" d="M 587.5 959 L 589 959.5 L 586.5 961 L 578.5 961 L 577.5 962 L 576.5 961 L 536.5 961 L 533.5 962 L 531.5 961 Q 530.3 963.2 525.5 962 L 523.5 961 Q 522 963.5 516.5 962 L 515.5 961 L 493.5 961 L 488.5 962 L 486 960.5 L 586.5 960 L 587.5 959 Z " /><path fill="rgb(171,105,53)" stroke="rgb(171,105,53)" stroke-width="1" opacity="0.996078431372549" d="M 385.5 295 L 511.5 295 L 512 295.5 L 512 320 L 535.5 320 L 537 321.5 L 537 345 L 512 345 L 512 384 L 486 384 L 486 434.5 L 485.5 435 L 461 435 L 461 460.5 L 460 461.5 L 460 512 L 435 512 L 435 536.5 L 432.5 537 L 431.5 538 L 384.5 538 L 383.5 537 L 257 537 L 257 512 L 231 512 L 231 486 L 256 486 L 256 462.5 L 257.5 461 L 282 461 L 282 435 L 308 435 L 308 410 L 333 410 L 333 347.5 L 334.5 346 L 359 346 L 359 321 L 384 321 L 384 296.5 L 385.5 295 Z M 384 384 L 384 435 L 410 435 L 410 384 L 384 384 Z " /><path fill="rgb(171,105,53)" stroke="rgb(171,105,53)" stroke-width="1" opacity="0.996078431372549" d="M 961 486 L 985 486 L 985 512 L 961 512 L 961 486 Z " /><path fill="rgb(171,105,53)" stroke="rgb(171,105,53)" stroke-width="1" opacity="0.996078431372549" d="M 935 513 L 960 513 L 960 536.5 L 958.5 538 L 935 538 L 935 513 Z " /><path fill="rgb(171,105,53)" stroke="rgb(171,105,53)" stroke-width="1" opacity="0.996078431372549" d="M 909 538 L 934 538 L 934 563 L 910.5 563 L 909.5 564 L 909 538 Z " /><path fill="rgb(171,105,53)" stroke="rgb(171,105,53)" stroke-width="1" opacity="0.996078431372549" d="M 640 564 L 843.5 564 L 844 564.5 L 844 589 L 896 589 L 896 640 L 920.5 640 L 921 640.5 L 921 793.5 L 921.5 794 L 946.5 794 L 947 794.5 L 947 958.5 L 945.5 960 L 904.5 960 L 903.5 959 L 880.5 959 L 879.5 958 L 872 958 L 872 931.5 L 873 930.5 L 872 926.5 L 874.5 923 L 922 922 L 922 845.5 L 920.5 844 L 919.5 845 L 896 845 L 896 819 L 871 819 L 871 793 L 819 793 L 819 768 L 794 768 L 794 743 L 768 743 L 768 717 L 691 717 L 691 743 L 614.5 743 L 614 743.5 L 614 766.5 L 612.5 768 L 589 768 L 589 793 L 563.5 793 L 563 793.5 L 563 933.5 L 562.5 934 L 538.5 934 L 537 935.5 L 537 959 L 487 959 L 487 922 L 511.5 922 L 512 921.5 L 512 768 L 488.5 767 L 486 768 L 487 764.5 L 487 743 L 483.5 742 L 436 742 L 436 716 L 410.5 716 L 410 715.5 L 410 639.5 L 411 638.5 L 411 589 L 461 589 L 461 614 L 486 614 L 486 639.5 L 486.5 640 L 589 640 L 589 614 L 614 614 L 614 600.5 L 615 599.5 L 615 589 L 640 589 L 640 564 Z " /><path fill="rgb(3,2,2)" stroke="rgb(3,2,2)" stroke-width="1" opacity="0.984313725490196" d="M 386.5 269 L 510.5 269 L 512 270.5 L 512 293.5 L 511.5 294 L 384.5 294 L 384 294.5 L 384 320 L 359.5 320 Q 356.8 321.3 359 322.5 L 358 342.5 L 359 345 L 334.5 345 L 332 347.5 L 332 409 L 307 409 L 308 404.5 L 308 346 L 331.5 346 L 333 344.5 L 333 296.5 L 334.5 295 L 372.5 295 L 375.5 294 Q 377 296.5 382.5 295 L 384 293.5 L 384 271.5 L 386.5 269 Z " /><path fill="rgb(3,2,2)" stroke="rgb(3,2,2)" stroke-width="1" opacity="0.984313725490196" d="M 516.5 294 L 537 295 L 537 320 L 513 320 L 513 295.5 L 515.5 295 L 516.5 294 Z " /><path fill="rgb(3,2,2)" stroke="rgb(3,2,2)" stroke-width="1" opacity="0.984313725490196" d="M 538 320 L 561.5 320 L 563 321.5 L 563 344.5 L 564.5 346 L 588 346 L 588 368.5 L 589 371 L 611.5 371 L 614 372 L 614 435 L 589 435 L 589 372.5 L 587.5 371 L 563 371 L 563 346 L 538 346 L 538 320 Z " /><path fill="rgb(3,2,2)" stroke="rgb(3,2,2)" stroke-width="1" opacity="0.984313725490196" d="M 384 384 L 409 384 L 409 435 L 384 435 L 384 384 Z " /><path fill="rgb(3,2,2)" stroke="rgb(3,2,2)" stroke-width="1" opacity="0.984313725490196" d="M 487.5 384 L 511.5 384 L 512 384.5 L 512 461 L 486.5 461 L 486 461.5 L 486 589 L 512 589 L 512 613.5 L 512.5 614 L 563 614 L 563 589 L 589 589 L 589 564 L 614 564 L 614 589 L 589 589 L 589 614 L 564 614 L 564 640 L 512 640 L 512 614 L 486 614 L 486 589 L 461.5 589 L 461 588.5 L 461 461 L 485.5 461 L 486 460.5 L 486 385.5 L 487.5 384 Z " /><path fill="rgb(3,2,2)" stroke="rgb(3,2,2)" stroke-width="1" opacity="0.984313725490196" d="M 936.5 384 L 983.5 384 L 985 385.5 L 986 388.5 L 986 409 L 991.5 410 L 1011 410 L 1011 535.5 L 1009.5 537 L 986.5 537 L 986 536.5 L 986 410.5 L 984.5 410 L 983.5 409 L 960 409 L 960 511.5 L 959.5 512 L 935.5 512 L 934 513.5 L 934 537 L 910.5 537 L 909 538.5 L 909 563.5 L 908.5 564 L 896 564 L 896 589 L 933.5 589 L 935 587.5 L 935 564 L 958.5 564 L 960 562.5 L 960 538 L 986 538 L 986 555.5 L 985 562 L 982.5 563 L 960 563 L 960 586.5 L 958.5 588 L 935.5 588 Q 934.3 588.3 935 594.5 L 935 596.5 L 935 608.5 L 934 614 L 922.5 614 L 922 616.5 L 921 617.5 L 921 627.5 L 922 628.5 L 922 640 L 945.5 640 L 946 641.5 L 947 642.5 L 947 793 L 969.5 793 L 972 794 L 972 958.5 L 970.5 959 L 969.5 960 L 948 960 L 948 794.5 L 946.5 793 L 922.5 793 L 922 792.5 L 922 640.5 L 921.5 640 L 896 640 L 896 589 L 845 589 L 845 563.5 L 844.5 563 L 614 563 L 614 436 L 638.5 436 L 640 437.5 L 640 536.5 L 641.5 538 L 842.5 538 L 844 539.5 L 845 541.5 L 845 563 L 875.5 563 L 879.5 564 L 883 563 L 884 559.5 L 884 538 L 907.5 538 L 909 536.5 L 909 513.5 L 910.5 513 L 911.5 512 L 935 512 L 935 385.5 L 936.5 384 Z " /><path fill="rgb(3,2,2)" stroke="rgb(3,2,2)" stroke-width="1" opacity="0.984313725490196" d="M 257 410 L 307 410 L 307 435 L 282 435 L 282 461 L 256 461 L 256 486 L 230 486 L 230 510.5 L 231.5 512 L 256 512 L 256 537 L 232.5 537 L 231 535.5 L 231 512 L 207.5 512 L 205 509.5 L 205 437.5 L 206.5 436 L 256 436 L 256 413.5 L 257 410 Z " /><path fill="rgb(3,2,2)" stroke="rgb(3,2,2)" stroke-width="1" opacity="0.984313725490196" d="M 256 538 L 383.5 538 L 384 538.5 L 384 562.5 L 385.5 564 L 409 564 L 409 715.5 L 410.5 717 L 435 717 L 435 743 L 461 743 L 461 767 L 435.5 767 L 435 767.5 L 435 894.5 L 434.5 895 L 427.5 895 L 426.5 896 L 409 896 L 409 934 L 461 934 L 461 922 L 486 922 L 486 960.5 L 487.5 961 L 492.5 962 L 493.5 961 L 515.5 961 Q 517 963.5 522.5 962 L 524.5 961 Q 525.7 963.2 530.5 962 L 532.5 961 L 535.5 962 L 536.5 961 L 576.5 961 L 578.5 961 Q 586 962 589 960 L 589 817.5 L 590 816.5 L 590 794 L 640 794 L 640 768.5 L 640.5 768 L 716 768 L 716 816.5 L 717 819 L 725.5 820 L 726.5 819 L 742 819 L 742 843.5 L 743.5 845 L 768 845 L 768 896 L 743.5 896 L 742 897.5 L 742 922 L 818.5 922 L 819 922.5 L 819 945.5 L 817.5 947 L 718.5 947 L 717 945.5 L 717 897.5 L 718.5 896 L 741.5 896 L 743 894.5 L 743 846.5 L 741.5 845 L 735.5 844 L 734.5 845 L 719.5 845 L 717 844 L 717 819 L 692.5 819 L 691 817.5 L 691 793 L 641.5 793 L 640 794.5 L 640 815.5 L 637.5 819 L 614.5 819 L 614 819.5 L 614 958.5 L 612.5 959 L 611.5 960 L 589 960 L 588 985 L 461.5 985 L 461 984.5 L 461 960.5 L 460.5 960 L 385.5 960 L 384 958.5 L 384 898.5 L 385 896 L 408.5 896 L 410 894.5 L 410 717.5 L 407.5 717 L 406.5 716 L 384 716 L 384 563 L 258.5 563 L 256 560.5 L 256 538 Z " /><path fill="rgb(3,2,2)" stroke="rgb(3,2,2)" stroke-width="1" opacity="0.984313725490196" d="M 717 743 L 768 743 L 768 766.5 L 766.5 768 L 717 768 L 717 743 Z " /><path fill="rgb(3,2,2)" stroke="rgb(3,2,2)" stroke-width="1" opacity="0.984313725490196" d="M 461 768 L 486 768 L 486 793 L 461 793 L 461 768 Z " /><path fill="rgb(3,2,2)" stroke="rgb(3,2,2)" stroke-width="1" opacity="0.984313725490196" d="M 768 768 L 794 768 L 794 793 L 768 793 L 768 768 Z " /><path fill="rgb(3,2,2)" stroke="rgb(3,2,2)" stroke-width="1" opacity="0.984313725490196" d="M 487 794 L 511.5 794 L 512 794.5 L 512 921 L 487.5 921 L 487 920.5 L 487 794 Z " /><path fill="rgb(3,2,2)" stroke="rgb(3,2,2)" stroke-width="1" opacity="0.984313725490196" d="M 794 794 L 819 794 L 819 818.5 L 819.5 819 L 870 819 L 870 844.5 L 868.5 844 L 846.5 844 L 844 846.5 L 844 920.5 L 843.5 921 L 821.5 921 Q 820.3 923.3 819 920.5 L 819 819.5 L 818.5 819 L 794 819 L 794 794 Z " /><path fill="rgb(3,2,2)" stroke="rgb(3,2,2)" stroke-width="1" opacity="0.984313725490196" d="M 871.5 845 L 895.5 845 L 896 845.5 L 896 922 L 871.5 922 L 870 923.5 L 870 960 L 946.5 960 L 947 960.5 L 947 983.5 L 945.5 985 L 845 985 L 845 922.5 Q 845.3 921.3 851.5 922 L 852.5 921 L 865.5 921 L 867.5 921 L 870 920.5 L 870 846.5 L 871.5 845 Z " /></svg>